<?xml version="1.0"?>
<svg xmlns:rdf="http://www.w3.org/1999/02/22-rdf-syntax-ns#" xmlns="http://www.w3.org/2000/svg" xmlns:cc="http://web.resource.org/cc/" xmlns:dc="http://purl.org/dc/elements/1.1/" xmlns:svg="http://www.w3.org/2000/svg" id="svg69498" viewBox="0 0 213.12 172.52" version="1.0">
  <g id="layer1" transform="translate(-235.04 -207.81)">
    <path id="path3303" stroke="#000" stroke-width="4.468" fill="#800000" d="m292.21 210.04c-0.84 0.03-1.69 0.25-2.46 0.7l-49.88 28.8c-2.49 1.44-3.34 4.6-1.9 7.09l16.99 29.43c1.44 2.49 4.61 3.34 7.1 1.9l26.06-15.05v109.98c0 2.88 2.33 5.2 5.2 5.2h96.29c2.88 0 5.19-2.32 5.19-5.2v-110.13l26.34 15.2c2.49 1.44 5.65 0.59 7.09-1.9l16.99-29.43c1.44-2.49 0.59-5.65-1.9-7.09l-49.87-28.8c-1.01-0.58-2.14-0.79-3.21-0.66-0.21-0.02-0.41-0.04-0.63-0.04h-27.58c-0.41 3.28-9.41 5.9-20.44 5.9-11.02 0-20.02-2.62-20.43-5.9h-27.84c-0.16 0-0.33 0.02-0.49 0.03-0.21-0.02-0.41-0.03-0.62-0.03z"/>
  </g>
  <metadata>
    <rdf:RDF>
      <cc:Work>
        <dc:format>image/svg+xml</dc:format>
        <dc:type rdf:resource="http://purl.org/dc/dcmitype/StillImage"/>
        <cc:license rdf:resource="http://creativecommons.org/licenses/publicdomain/"/>
        <dc:publisher>
          <cc:Agent rdf:about="http://openclipart.org/">
            <dc:title>Openclipart</dc:title>
          </cc:Agent>
        </dc:publisher>
        <dc:title>red tshirt</dc:title>
        <dc:date>2007-04-28T19:26:33</dc:date>
        <dc:description>a basic t-shirt design that could be used for putting your own design on.</dc:description>
        <dc:source>http://openclipart.org/detail/4173/red-tshirt-by-ryanlerch</dc:source>
        <dc:creator>
          <cc:Agent>
            <dc:title>ryanlerch</dc:title>
          </cc:Agent>
        </dc:creator>
        <dc:subject>
          <rdf:Bag>
            <rdf:li>apparel</rdf:li>
            <rdf:li>clip art</rdf:li>
            <rdf:li>clipart</rdf:li>
            <rdf:li>clothing</rdf:li>
            <rdf:li>design</rdf:li>
            <rdf:li>image</rdf:li>
            <rdf:li>media</rdf:li>
            <rdf:li>public domain</rdf:li>
            <rdf:li>red</rdf:li>
            <rdf:li>remix</rdf:li>
            <rdf:li>svg</rdf:li>
            <rdf:li>tshirt</rdf:li>
            <rdf:li>web store</rdf:li>
          </rdf:Bag>
        </dc:subject>
      </cc:Work>
      <cc:License rdf:about="http://creativecommons.org/licenses/publicdomain/">
        <cc:permits rdf:resource="http://creativecommons.org/ns#Reproduction"/>
        <cc:permits rdf:resource="http://creativecommons.org/ns#Distribution"/>
        <cc:permits rdf:resource="http://creativecommons.org/ns#DerivativeWorks"/>
      </cc:License>
    </rdf:RDF>
  </metadata>
</svg>
